<svg id="logo" xmlns="http://www.w3.org/2000/svg" width="428.639" height="72.83" viewBox="0 0 428.639 72.83">
  <g id="Group_9" data-name="Group 9">
    <path id="Path_13" data-name="Path 13" d="M429.216,78.176s-7.763,4.991-13.307,2.774-6.1-3.327-8.32-12.755-13.864-14.977-15.253-18.3-1.938-6.933-1.11-8.874l3.053.28s1.385-7.766-.555-10.26-2.776-7.765-6.936-7.765-8.317.833-9.981,0-4.99-4.435-6.1-3.327-1.939,5.544,0,6.931a9.4,9.4,0,0,1,2.774,3.049l-3.6-.692c0,1.109,1.523,2.5,1.523,2.5s4.992,1.108,5.132,2.081c.323,2.262.554,3.88-.835,4.712s-3.6,2.218-4.159,8.32c0,0,0,1.94-2.5.553s-7.208-5.822-8.6-6.931-1.943.278-3.607-.832-4.714-6.656-5.822-5.547-1.664,5.547,0,6.933,2.774,1.111,4.716,2.5,9.982,7.486,13.03,11.368c0,0-.832,1.109,2.5.831l3.327-.276s1.665,11.37-.832,16.638a60.542,60.542,0,0,1-4.437,8.041s-4.992-.832-5.547.833-1.39,4.158.555,4.158,5.826.834,6.378,0,10.261-12.756,10.538-14.142,1.938,3.327,5.269,7.487,2.77,2.219,1.662,3.607-3.6.831-2.771,2.216a10.283,10.283,0,0,1,1.11,2.495h19.409a5.754,5.754,0,0,0,1.387-5.267,17.321,17.321,0,0,1,3.049,1.387c2.774,1.385,13.866,3.882,18.855-4.714Z" transform="translate(-0.576 -19.735)" fill="#e50019" fill-rule="evenodd"/>
    <path id="Path_14" data-name="Path 14" d="M212.907,53.83c.129-.005.258-.017.384-.034a1.408,1.408,0,0,0,.942-.586,4.472,4.472,0,0,0,.633-1.31l4.927-13.971c.1-.283.36-1.159.789-1.12.426-.02.672.753.782,1.053q2.5,6.789,5.062,13.552a6.268,6.268,0,0,0,1.019,1.832,1.62,1.62,0,0,0,.615.465l.015,0,.016,0a2.137,2.137,0,0,0,.767.118.48.48,0,0,1,.541.459v.034c-.041.38-.44.459-.753.459-1.135,0-2.275-.024-3.407-.044-.326,0-.982,0-.982-.472a.463.463,0,0,1,.326-.45c0-.019,0-.037,0-.044a.678.678,0,0,0-.025-.164L220.2,41.447l-3.46,10.66a4.473,4.473,0,0,0-.281,1.4.161.161,0,0,0,.107.178l.03.012.028.019a.563.563,0,0,0,.342.117h.215a.474.474,0,0,1,.534.459v.02l0,.022c-.045.329-.344.45-.647.449-.564-.022-1.127-.043-1.681-.062-.77.026-1.537.042-2.31.059-.047,0-.094.005-.139.005-1.138,0-2.279-.024-3.414-.044-.326,0-.982,0-.982-.47a.461.461,0,0,1,.325-.451l0-.044a.629.629,0,0,0-.024-.164l-2-5.478h-4.529l-1.327,3.972a4.369,4.369,0,0,0-.288,1.4.159.159,0,0,0,.112.177l.03.013.027.018a.625.625,0,0,0,.369.117l.218,0a.478.478,0,0,1,.539.459v.017l0,.017c-.036.334-.341.457-.648.456-.566-.022-1.129-.043-1.686-.062-.819.027-1.637.044-2.462.063-.319,0-.737-.09-.737-.492V54.27l0-.024a.481.481,0,0,1,.509-.412,4.373,4.373,0,0,0,.585-.039,1.405,1.405,0,0,0,.942-.586,4.575,4.575,0,0,0,.635-1.31l4.936-13.971c.1-.285.359-1.157.789-1.12.428-.023.674.752.784,1.053q2.511,6.789,5.071,13.552a6.267,6.267,0,0,0,1.018,1.832,1.668,1.668,0,0,0,.64.47,2.758,2.758,0,0,0,.535.114Zm-10.1-7.149h3.527L204.5,41.31l-1.694,5.371Zm-85.283,6.5h8.86v-9.21c0-1.155,0-2.311-.01-3.466,0-.4.016-.972-.032-1.381a1.671,1.671,0,0,0-.146-.7.762.762,0,0,0-.526-.258,3.772,3.772,0,0,0-.678-.059.464.464,0,0,1-.506-.462c0-.384.355-.513.683-.513.826.01,1.693,0,2.5.066.282,0,.582-.026.87-.043.433-.013.868-.023,1.3-.023.327,0,.679.129.679.513v.026l0,.026a.486.486,0,0,1-.51.408,3.3,3.3,0,0,0-.53.062.532.532,0,0,0-.4.213,1.618,1.618,0,0,0-.18.741c-.031.446-.032.908-.032,1.357-.027,1.16-.024,2.328-.024,3.488v9.21h1.906a1.6,1.6,0,0,0,.352-.038l.059-.012.056.008c.314.046.427.33.427.615,0,.157,0,.313,0,.47v.453l0,.026a3.357,3.357,0,0,0-.041.549c0,.34.012.683.023,1.027a8.608,8.608,0,0,1-.044,1.054.957.957,0,0,1-.062.319l-.009.025-.015.025a.581.581,0,0,1-.415.287l-.029,0h-.027c-.439,0-.566-.4-.547-.763a7.156,7.156,0,0,0-.11-1.081,2.809,2.809,0,0,0-.083-.471,1.068,1.068,0,0,0-.188-.375.945.945,0,0,0-.351-.315,2.6,2.6,0,0,0-.793-.2c-.437-.032-.877-.06-1.315-.06H116.3c-.7.018-1.415.04-2.127.062-.315,0-.674-.115-.674-.492a.471.471,0,0,1,.434-.454l.028,0h.029a2.231,2.231,0,0,0,.572-.079.34.34,0,0,0,.241-.238,2.523,2.523,0,0,0,.146-.706c.118-1.6.116-3.26.116-4.865V43.971c0-1.155,0-2.312-.012-3.467,0-.406.016-.971-.034-1.383a1.646,1.646,0,0,0-.145-.7.765.765,0,0,0-.526-.255,3.562,3.562,0,0,0-.676-.059.461.461,0,0,1-.5-.462c0-.38.347-.513.675-.513.813.01,1.666.005,2.465.066.272,0,.564-.026.842-.043.423-.013.85-.023,1.274-.023.326,0,.671.133.671.513v.025l0,.026a.471.471,0,0,1-.488.409,2.968,2.968,0,0,0-.5.061.476.476,0,0,0-.362.208,1.646,1.646,0,0,0-.169.741c-.019.451-.02.908-.02,1.364-.028,1.159-.022,2.328-.022,3.488v9.21Zm26.391-16.093a1.169,1.169,0,0,1,.366-.124l.063-.009.06.015a.476.476,0,0,1,.335.51,2.4,2.4,0,0,1-.054.441,5.259,5.259,0,0,0-.122.659c-.03.5-.066.989-.108,1.487a.54.54,0,0,1-.437.54l-.023,0h-.024c-.353,0-.493-.307-.493-.618a3.025,3.025,0,0,0-.122-.748.473.473,0,0,0-.221-.268,3.34,3.34,0,0,0-1.061-.232c-.478-.055-1.016-.055-1.493-.065h-1.269v6.006c.5,0,.992-.013,1.489-.022.586,0,1.182,0,1.767-.022a1.348,1.348,0,0,0,.792-.2c.137-.183.324-.409.574-.409a.447.447,0,0,1,.436.5v.039c-.048.413-.118.83-.178,1.236-.043.464-.083.939-.083,1.406V47.5l0,.022a.47.47,0,0,1-.468.445.481.481,0,0,1-.479-.531,3.42,3.42,0,0,0-.082-.686.5.5,0,0,0-.157-.31,1.369,1.369,0,0,0-.678-.211c-.975-.062-1.952-.1-2.93-.109v5.665a1.763,1.763,0,0,0,.38,1.244,3.949,3.949,0,0,0,1.83.283c.349,0,.7-.018,1.048-.043a3.676,3.676,0,0,0,.936-.175,1.621,1.621,0,0,0,.786-1.37c.043-.295.188-.607.532-.607h.023l.021,0c.341.047.438.367.418.654a8.57,8.57,0,0,1-.1,1A10.533,10.533,0,0,1,145,54.015a.926.926,0,0,1-.512.729,3.251,3.251,0,0,1-.991.109c-1.235-.017-2.468-.036-3.7-.066-.548-.014-1.145-.015-1.693-.066-.709.024-1.422.044-2.134.066-.314,0-.677-.114-.677-.492a.472.472,0,0,1,.435-.454l.028,0h.029a2.246,2.246,0,0,0,.573-.079.332.332,0,0,0,.239-.238,2.559,2.559,0,0,0,.147-.728c.123-1.6.116-3.263.116-4.865V43.971c0-1.155,0-2.312-.011-3.467a13.822,13.822,0,0,0-.034-1.382,1.654,1.654,0,0,0-.147-.7.762.762,0,0,0-.525-.254,3.535,3.535,0,0,0-.675-.059.461.461,0,0,1-.5-.462c0-.381.346-.513.675-.513.817.01,1.673.005,2.474.066,1.661,0,3.309-.008,4.961-.022a6.137,6.137,0,0,0,.848-.093Zm9.1,7.171h8.862v-.3c0-1.151,0-2.3-.011-3.452a13.734,13.734,0,0,0-.032-1.378,1.665,1.665,0,0,0-.144-.7.765.765,0,0,0-.528-.258,3.664,3.664,0,0,0-.677-.059.462.462,0,0,1-.5-.462c0-.381.347-.513.676-.513.808.01,1.66.005,2.453.066.277,0,.572-.026.854-.043.422-.013.85-.023,1.273-.023.326,0,.672.133.672.513v.026l0,.026a.475.475,0,0,1-.5.408,2.943,2.943,0,0,0-.49.061.465.465,0,0,0-.354.207,1.707,1.707,0,0,0-.17.747c-.03.448-.03.909-.03,1.36-.028,1.153-.023,2.316-.023,3.469v3.978c-.011,1.6-.024,3.289.115,4.882a1.857,1.857,0,0,0,.185.7.5.5,0,0,0,.4.245,6.17,6.17,0,0,0,.922.081H166l.031.006a.474.474,0,0,1,.429.455c0,.378-.362.493-.678.493-.891-.018-1.785-.029-2.663-.063-.708.023-1.413.043-2.127.063-.313,0-.674-.115-.674-.492a.473.473,0,0,1,.437-.454l.028,0h.028a2.314,2.314,0,0,0,.577-.077.358.358,0,0,0,.244-.242,2.375,2.375,0,0,0,.147-.7c.11-1.611.107-3.273.107-4.889V45.755h-8.862v2.174c-.015,1.6-.034,3.292.107,4.882a1.744,1.744,0,0,0,.182.687.515.515,0,0,0,.4.253,6.27,6.27,0,0,0,.93.081h.031l.032.006a.476.476,0,0,1,.429.456c0,.376-.36.492-.676.492-.888-.018-1.779-.029-2.655-.063-.71.023-1.419.043-2.134.063-.314,0-.675-.115-.675-.492a.472.472,0,0,1,.435-.454l.029,0h.028a2.231,2.231,0,0,0,.572-.079.335.335,0,0,0,.24-.238,2.443,2.443,0,0,0,.146-.706c.122-1.607.117-3.275.117-4.886V43.949c0-1.151,0-2.3-.012-3.451a13.4,13.4,0,0,0-.033-1.377,1.618,1.618,0,0,0-.147-.7.756.756,0,0,0-.525-.255,3.558,3.558,0,0,0-.675-.059.462.462,0,0,1-.5-.462c0-.382.349-.513.677-.513.813.01,1.665.005,2.463.066.273,0,.564-.026.842-.043.423-.013.85-.023,1.274-.023.326,0,.671.133.671.513v.024l0,.024a.472.472,0,0,1-.49.412,2.957,2.957,0,0,0-.5.061.477.477,0,0,0-.362.208,1.674,1.674,0,0,0-.17.743c-.019.451-.02.911-.02,1.366-.028,1.153-.023,2.315-.023,3.468v.3Zm17.817-7.162c.545.052,1.116.1,1.663.1h8.157a12.786,12.786,0,0,0,1.955-.154l.09-.093.171.033c.294.056.378.341.378.6-.015.823-.036,1.646-.074,2.46,0,.294-.114.6-.448.616-.39.041-.5-.381-.513-.682l-.023-.269a.731.731,0,0,0-.41-.586,5.343,5.343,0,0,0-1.958-.32l-2.423-.04v9.163c-.01,1.6-.028,3.287.107,4.88a1.772,1.772,0,0,0,.18.687.519.519,0,0,0,.4.252,6.27,6.27,0,0,0,.93.081h.032l.03.006a.475.475,0,0,1,.431.455c0,.376-.353.493-.667.493-.892-.018-1.789-.029-2.669-.063-.71.023-1.42.043-2.135.063-.314,0-.676-.114-.676-.492a.477.477,0,0,1,.449-.454l.027,0h.027a2.2,2.2,0,0,0,.567-.079.334.334,0,0,0,.24-.236,2.505,2.505,0,0,0,.149-.707c.122-1.6.116-3.274.116-4.883V38.77l-2.9.04a5.21,5.21,0,0,0-1.39.138.956.956,0,0,0-.563.438,2.874,2.874,0,0,0-.336.606c-.084.255-.264.488-.556.454-.284-.014-.4-.274-.4-.53a2.942,2.942,0,0,1,.091-.549c.059-.239.111-.482.159-.725.079-.367.172-.754.234-1.133a.9.9,0,0,1,.4-.663l.108-.051.114.032c.31.087.621.179.933.267Zm25.078,1.444a3.643,3.643,0,0,1,.8,1.118,4.426,4.426,0,0,1,.376,1.748,5.586,5.586,0,0,1-1.592,4.127,5.682,5.682,0,0,1-4.079,1.572c-.163,0-.318-.009-.466-.023a.5.5,0,0,1-.546-.437l0-.022V46.6a.477.477,0,0,1,.4-.509,3.2,3.2,0,0,1,.508-.026,3.439,3.439,0,0,0,2.464-.967,3.18,3.18,0,0,0,.988-2.367v-.7a3.872,3.872,0,0,0-.143-.8,3.792,3.792,0,0,0-.345-.917,3.376,3.376,0,0,0-.644-.845,3.113,3.113,0,0,0-1.365-.88,5.84,5.84,0,0,0-1.385-.135,2.411,2.411,0,0,0-.787.107.784.784,0,0,0-.012.142v9.222c-.012,1.6-.025,3.288.113,4.882a1.814,1.814,0,0,0,.188.7.5.5,0,0,0,.394.245,6.284,6.284,0,0,0,.931.081h.032l.031.006a.475.475,0,0,1,.431.456c0,.377-.362.492-.679.492-.893-.018-1.787-.029-2.668-.063-.7.024-1.384.043-2.085.063-.313,0-.675-.114-.675-.492a.472.472,0,0,1,.436-.454l.028,0h.029a2.237,2.237,0,0,0,.572-.079.334.334,0,0,0,.239-.238,2.491,2.491,0,0,0,.149-.7c.118-1.609.115-3.276.115-4.888V43.971c0-1.155,0-2.311-.011-3.464a12.3,12.3,0,0,0-.031-1.325l0-.017,0-.017a1.7,1.7,0,0,0-.145-.727.76.76,0,0,0-.526-.254,3.563,3.563,0,0,0-.676-.059.461.461,0,0,1-.5-.462c0-.382.348-.513.677-.513.819.01,1.66.012,2.462.066.913-.02,1.822-.042,2.74-.066a10.131,10.131,0,0,1,1.814.137,4.712,4.712,0,0,1,1.252.385,3.563,3.563,0,0,1,.831.484,3.909,3.909,0,0,1,.379.4Zm38.917,5.717h8.86v-.3c0-1.151,0-2.3-.011-3.452,0-.4.017-.97-.031-1.378a1.618,1.618,0,0,0-.146-.7.766.766,0,0,0-.524-.258,3.811,3.811,0,0,0-.682-.059.462.462,0,0,1-.5-.462c0-.381.347-.513.675-.513.812.01,1.661.005,2.455.066.277,0,.572-.026.852-.043.423-.013.849-.023,1.275-.023.325,0,.669.133.669.513v.025l0,.026a.476.476,0,0,1-.5.409,2.944,2.944,0,0,0-.489.061.468.468,0,0,0-.356.207,1.752,1.752,0,0,0-.17.748c-.029.447-.03.909-.03,1.359-.026,1.153-.02,2.315-.02,3.469v3.978c-.012,1.6-.024,3.289.114,4.882a1.816,1.816,0,0,0,.184.7.5.5,0,0,0,.394.245,6.188,6.188,0,0,0,.926.081h.033l.03.006a.475.475,0,0,1,.428.456c0,.377-.359.492-.678.492-.891-.018-1.782-.029-2.663-.063-.706.023-1.412.043-2.126.063-.314,0-.674-.115-.674-.492a.471.471,0,0,1,.436-.454l.028,0h.029a2.307,2.307,0,0,0,.577-.077.36.36,0,0,0,.244-.242,2.371,2.371,0,0,0,.145-.7c.111-1.611.108-3.274.108-4.889V45.755h-8.86v2.174c-.017,1.6-.037,3.292.107,4.882a1.77,1.77,0,0,0,.179.687.519.519,0,0,0,.4.253,6.229,6.229,0,0,0,.928.081h.032l.03.006a.474.474,0,0,1,.431.455c0,.377-.361.493-.676.493-.888-.018-1.778-.029-2.655-.063q-1.064.034-2.134.063c-.313,0-.677-.115-.677-.493a.476.476,0,0,1,.439-.453l.028,0h.028a2.223,2.223,0,0,0,.57-.079.333.333,0,0,0,.24-.239,2.513,2.513,0,0,0,.149-.7c.118-1.607.114-3.275.114-4.886V43.949c0-1.151,0-2.3-.011-3.451a13.122,13.122,0,0,0-.036-1.378,1.6,1.6,0,0,0-.144-.7.761.761,0,0,0-.526-.255,3.555,3.555,0,0,0-.676-.059.462.462,0,0,1-.5-.462c0-.382.347-.513.677-.513.813.01,1.665.006,2.463.066.272,0,.566-.026.842-.043.423-.013.849-.023,1.273-.023.326,0,.672.133.672.513v.024l0,.024a.472.472,0,0,1-.49.412,3,3,0,0,0-.5.061.47.47,0,0,0-.361.209,1.653,1.653,0,0,0-.168.742c-.02.451-.023.911-.023,1.365-.025,1.154-.02,2.315-.02,3.469v.3Zm23.044-7.446c.427-.025.676.752.784,1.052q2.509,6.789,5.07,13.552a6.241,6.241,0,0,0,1.018,1.832,1.657,1.657,0,0,0,.64.47,2.2,2.2,0,0,0,.779.117.479.479,0,0,1,.539.461v.033c-.04.382-.442.461-.757.461-1.137,0-2.279-.024-3.413-.044-.327,0-.981,0-.981-.47a.462.462,0,0,1,.323-.452c0-.018,0-.036.005-.043a.587.587,0,0,0-.024-.164l-2-5.478h-4.528l-1.326,3.973a4.3,4.3,0,0,0-.288,1.4.159.159,0,0,0,.111.177l.03.013.029.018a.612.612,0,0,0,.367.117l.218,0a.479.479,0,0,1,.54.459v.019l0,.018c-.041.33-.344.454-.648.453-.567-.022-1.131-.043-1.687-.062-.82.027-1.639.044-2.462.063-.32,0-.739-.09-.739-.492V54.27l0-.024a.483.483,0,0,1,.51-.412,4.334,4.334,0,0,0,.584-.039,1.4,1.4,0,0,0,.942-.588,4.413,4.413,0,0,0,.635-1.308l4.935-13.971c.1-.285.361-1.156.791-1.119Zm-2.053,9.871h3.53L257.52,41.31l-1.7,5.371Z" transform="translate(-18.648 -18.433)" fill="#00295f" fill-rule="evenodd"/>
    <path id="Path_15" data-name="Path 15" d="M341.741,82.787a1.367,1.367,0,0,0,.792-.553,4.412,4.412,0,0,0,.635-1.31l4.937-13.971c.105-.286.358-1.155.789-1.12.428-.025.677.753.786,1.052q2.506,6.79,5.067,13.553a6.3,6.3,0,0,0,1.021,1.832,1.668,1.668,0,0,0,.637.471,2.214,2.214,0,0,0,.78.116.481.481,0,0,1,.542.461v.016l0,.019c-.042.38-.442.46-.757.46-1.138,0-2.28-.024-3.413-.043-.327,0-.982,0-.982-.473a.46.46,0,0,1,.324-.451c0-.018,0-.036.006-.043a.708.708,0,0,0-.026-.166l-2-5.477h-4.531l-1.325,3.972a4.316,4.316,0,0,0-.288,1.4.161.161,0,0,0,.113.178l.029.013.026.018a.63.63,0,0,0,.368.117l.218,0a.48.48,0,0,1,.54.461v.018l0,.019c-.039.331-.342.453-.647.453-.567-.023-1.133-.044-1.69-.062q-.625.019-1.252.034a1.818,1.818,0,0,1-.323.028H341c-.507,0-1.021-.011-1.537-.044a3.656,3.656,0,0,1-1.5-.516,9.146,9.146,0,0,1-1.315-.959c-1.144-1.048-2.265-2.311-3.309-3.457-.973-1.074-1.971-2.17-2.9-3.294v1.411c-.012,1.6-.024,3.291.115,4.884a1.833,1.833,0,0,0,.183.694.5.5,0,0,0,.39.246,5.054,5.054,0,0,0,.794.08h.027l.03.005a.475.475,0,0,1,.445.455c0,.381-.361.493-.677.493-.835-.018-1.669-.034-2.494-.062l-2.08.062c-.314,0-.674-.113-.674-.491a.473.473,0,0,1,.433-.455l.03-.005h.027a2.194,2.194,0,0,0,.574-.076.341.341,0,0,0,.24-.238,2.471,2.471,0,0,0,.147-.7c.118-1.608.116-3.277.116-4.889V73.017q0-1.742-.012-3.484c0-.407.016-.975-.034-1.386a1.631,1.631,0,0,0-.147-.7.745.745,0,0,0-.524-.253,3.573,3.573,0,0,0-.676-.06.462.462,0,0,1-.5-.462c0-.38.346-.512.675-.512.788.01,1.618.005,2.39.066.285,0,.582-.025.872-.043.409-.014.821-.023,1.23-.023.328,0,.674.13.674.512V66.7l0,.026a.478.478,0,0,1-.5.41,2.784,2.784,0,0,0-.491.062.467.467,0,0,0-.359.21,1.59,1.59,0,0,0-.175.739c-.02.456-.02.922-.02,1.383-.027,1.159-.022,2.326-.022,3.485v.64q2.326-2.467,4.629-4.953c.281-.3.555-.611.818-.931a1.15,1.15,0,0,0,.266-.464c0-.046,0-.149-.053-.166a.529.529,0,0,1-.426-.488c0-.338.284-.492.594-.492q.818.024,1.625.066c.282,0,.586-.026.875-.043.4-.013.809-.023,1.213-.023.313,0,.652.124.652.491a.489.489,0,0,1-.546.482,2.786,2.786,0,0,0-1.075.278,4.163,4.163,0,0,0-1.058.694c-.415.375-.815.775-1.209,1.173q-1.209,1.229-2.412,2.46c-.719.735-1.479,1.492-2.167,2.265q2.841,3.095,5.777,6.093c.607.578,1.253,1.2,1.919,1.724a4.263,4.263,0,0,0,1.2.774c.156.052.42.135.677.195Zm5.1-7.082h3.528l-1.835-5.371-1.693,5.371ZM241.793,82.789a1.376,1.376,0,0,0,.8-.554,4.471,4.471,0,0,0,.635-1.311l4.928-13.971c.105-.283.361-1.158.79-1.122.427-.022.673.756.781,1.053q2.507,6.79,5.064,13.555a6.293,6.293,0,0,0,1.02,1.83,1.653,1.653,0,0,0,.614.467l.016,0,.016.005a2.116,2.116,0,0,0,.767.116.482.482,0,0,1,.541.46v.038c-.045.377-.445.455-.756.455-1.135,0-2.274-.024-3.406-.043-.326,0-.979,0-.979-.473a.458.458,0,0,1,.326-.451.206.206,0,0,0,.005-.043.637.637,0,0,0-.026-.166L248.561,70.47l-3.466,10.663a4.407,4.407,0,0,0-.281,1.4.162.162,0,0,0,.107.179l.03.012.027.019a.57.57,0,0,0,.346.115h.212a.477.477,0,0,1,.536.461v.02l0,.02c-.043.329-.342.45-.647.45q-.849-.034-1.68-.062c-.418.013-.836.024-1.253.034a1.868,1.868,0,0,1-.325.028h-1.118c-.5,0-1.019-.011-1.534-.044a3.641,3.641,0,0,1-1.5-.517,9.11,9.11,0,0,1-1.316-.958c-1.143-1.048-2.261-2.311-3.306-3.457-.973-1.074-1.973-2.169-2.9-3.292v1.41c-.012,1.6-.028,3.292.114,4.883a1.823,1.823,0,0,0,.173.674l.009.015.006.013a.484.484,0,0,0,.385.24,5.069,5.069,0,0,0,.8.08H232l.029.005a.475.475,0,0,1,.443.456c0,.377-.358.492-.677.492-.835-.018-1.669-.034-2.494-.062l-2.078.062c-.314,0-.676-.114-.676-.492a.473.473,0,0,1,.434-.454l.027-.005h.03a2.251,2.251,0,0,0,.573-.076.338.338,0,0,0,.24-.24,2.469,2.469,0,0,0,.147-.7c.118-1.608.114-3.277.114-4.889V73.017c0-1.161,0-2.322-.011-3.484,0-.407.016-.974-.032-1.386a1.647,1.647,0,0,0-.149-.7.754.754,0,0,0-.524-.253,3.564,3.564,0,0,0-.676-.06.463.463,0,0,1-.5-.462c0-.381.348-.512.676-.512.789.01,1.618.005,2.391.066.284,0,.581-.025.87-.043.411-.014.824-.023,1.233-.023.326,0,.675.131.675.512V66.7l0,.026a.481.481,0,0,1-.5.41,2.712,2.712,0,0,0-.488.062.468.468,0,0,0-.361.21,1.585,1.585,0,0,0-.175.738c-.021.457-.023.922-.023,1.384-.024,1.159-.02,2.326-.02,3.485v.64q2.328-2.465,4.628-4.953c.281-.3.555-.611.818-.931a1.136,1.136,0,0,0,.265-.464c0-.044.005-.149-.048-.166a.528.528,0,0,1-.427-.489c0-.338.284-.491.6-.491.545.016,1.087.038,1.622.066.284,0,.588-.026.876-.043.4-.013.811-.023,1.215-.023.311,0,.65.124.65.491a.49.49,0,0,1-.546.482,2.786,2.786,0,0,0-1.076.278A4.166,4.166,0,0,0,238,68.1c-.418.375-.818.775-1.211,1.174-.806.816-1.608,1.639-2.411,2.459-.72.736-1.48,1.492-2.168,2.265q2.841,3.095,5.774,6.092c.608.579,1.256,1.2,1.923,1.725a4.215,4.215,0,0,0,1.2.774c.156.052.423.136.682.2ZM42.6,73.776a6.422,6.422,0,0,1,2.136,1.461,4.482,4.482,0,0,1,.983,1.453,4.879,4.879,0,0,1,.377,1.949A5.058,5.058,0,0,1,44.636,82.2a5.84,5.84,0,0,1-4.424,1.676c-.52-.025-1.043-.055-1.558-.085-.437-.019-.886-.043-1.317-.043q-1.059.032-2.134.062c-.313,0-.674-.115-.674-.491a.473.473,0,0,1,.435-.455l.028-.005h.029a2.238,2.238,0,0,0,.573-.076.339.339,0,0,0,.24-.238,2.477,2.477,0,0,0,.145-.729c.123-1.6.117-3.263.117-4.865V72.995c0-1.153,0-2.305-.012-3.458a13.022,13.022,0,0,0-.033-1.357,1.763,1.763,0,0,0-.147-.734.752.752,0,0,0-.524-.253,3.565,3.565,0,0,0-.676-.06.461.461,0,0,1-.5-.462c0-.382.349-.512.676-.512.815.01,1.67.005,2.469.066.33,0,.662-.02,1-.043.453-.017.911-.023,1.365-.023a6.1,6.1,0,0,1,2.318.386,3.519,3.519,0,0,1,1.453,1,3.866,3.866,0,0,1,.9,2.329,4.626,4.626,0,0,1-.653,2.44A10.89,10.89,0,0,1,42.6,73.776Zm-4.127-.288a7.241,7.241,0,0,0,1.171.057,4.631,4.631,0,0,0,1.2-.113.993.993,0,0,0,.54-.395,3.044,3.044,0,0,0,.707-2.068,4.929,4.929,0,0,0-.618-2.469,2.217,2.217,0,0,0-2.013-1.062,5.156,5.156,0,0,0-.988.116v5.934Zm.58,8.729c.156.054.318.1.485.14a4.812,4.812,0,0,0,.48.112,7.536,7.536,0,0,0,.837.062,3.117,3.117,0,0,0,.922-.152,2.641,2.641,0,0,0,.918-.467,2.221,2.221,0,0,0,.683-.87,3.255,3.255,0,0,0,.258-1.387,7.387,7.387,0,0,0-.4-2.232,4.438,4.438,0,0,0-1.606-2.036,2.734,2.734,0,0,0-.842-.461,6.235,6.235,0,0,0-.809-.1q-.754-.04-1.509-.044v1.1q0,1.471.024,2.944v1.923a4.412,4.412,0,0,0,.149,1.055.752.752,0,0,0,.408.421ZM58.6,66.11a1.137,1.137,0,0,1,.368-.124l.061-.009.058.014a.476.476,0,0,1,.336.511,2.407,2.407,0,0,1-.054.441,5.72,5.72,0,0,0-.122.659c-.03.5-.066.989-.107,1.489a.543.543,0,0,1-.432.538l-.025,0h-.026c-.354,0-.494-.308-.494-.619a3.076,3.076,0,0,0-.122-.747A.481.481,0,0,0,57.82,68a3.4,3.4,0,0,0-1.06-.232c-.481-.053-1.012-.055-1.493-.065H54v6.006c.5,0,.992-.013,1.489-.02.584,0,1.183,0,1.769-.023.213-.006.644-.032.791-.195.136-.183.322-.41.573-.41a.448.448,0,0,1,.437.5v.02l0,.019c-.051.414-.118.828-.178,1.232-.043.464-.082.94-.082,1.406v.285l0,.019a.467.467,0,0,1-.467.447.481.481,0,0,1-.48-.531,3.486,3.486,0,0,0-.082-.685.5.5,0,0,0-.157-.31,1.388,1.388,0,0,0-.679-.211c-.974-.062-1.951-.1-2.929-.11v5.667a1.759,1.759,0,0,0,.38,1.242,3.924,3.924,0,0,0,1.83.283c.35,0,.7-.018,1.047-.042a3.667,3.667,0,0,0,.937-.175,1.627,1.627,0,0,0,.787-1.37c.041-.3.187-.606.532-.606h.022l.023,0c.341.048.437.366.417.654a8.338,8.338,0,0,1-.1,1,10.951,10.951,0,0,1-.194,1.249.931.931,0,0,1-.511.73,3.261,3.261,0,0,1-.993.108c-1.231-.018-2.466-.037-3.7-.066-.55-.014-1.147-.015-1.7-.066q-1.062.032-2.131.065c-.315,0-.679-.112-.679-.492a.475.475,0,0,1,.436-.454l.028-.005h.029a2.238,2.238,0,0,0,.573-.076.336.336,0,0,0,.239-.238,2.6,2.6,0,0,0,.149-.729c.119-1.6.115-3.262.115-4.865V72.995c0-1.155,0-2.311-.013-3.466a13.806,13.806,0,0,0-.032-1.382,1.678,1.678,0,0,0-.146-.7.75.75,0,0,0-.526-.253,3.561,3.561,0,0,0-.675-.06.461.461,0,0,1-.5-.462c0-.382.348-.512.677-.512.815.01,1.673.005,2.473.066,1.66,0,3.31-.009,4.96-.023a5.988,5.988,0,0,0,.849-.092Zm5.348.009c.546.054,1.115.105,1.662.105h8.157a13.1,13.1,0,0,0,1.958-.154l.089-.091.17.032c.294.055.379.341.379.6-.017.823-.037,1.646-.074,2.462,0,.292-.116.6-.447.612-.391.045-.5-.378-.516-.68l-.022-.268a.741.741,0,0,0-.412-.588,5.34,5.34,0,0,0-1.957-.32L70.513,67.8v9.161c-.012,1.6-.027,3.288.107,4.882a1.763,1.763,0,0,0,.18.687.514.514,0,0,0,.4.25,6.117,6.117,0,0,0,.93.082h.03l.03.006a.472.472,0,0,1,.433.455c0,.375-.353.492-.666.492-.893-.018-1.789-.027-2.67-.062-.71.022-1.42.043-2.135.062-.314,0-.676-.113-.676-.491a.479.479,0,0,1,.449-.456l.027,0h.028a2.209,2.209,0,0,0,.567-.076.34.34,0,0,0,.24-.235,2.556,2.556,0,0,0,.147-.708c.121-1.6.116-3.274.116-4.884V67.8l-2.9.039a5.231,5.231,0,0,0-1.391.138.973.973,0,0,0-.562.439,2.9,2.9,0,0,0-.336.606c-.083.254-.264.485-.552.455-.287-.014-.4-.277-.4-.532A2.869,2.869,0,0,1,62,68.391c.058-.238.109-.482.158-.727.08-.368.17-.752.235-1.131a.907.907,0,0,1,.4-.662l.111-.054.118.034c.309.09.619.178.929.266Zm23.882-.009a1.154,1.154,0,0,1,.371-.124l.059-.009.059.014a.476.476,0,0,1,.336.511,2.456,2.456,0,0,1-.054.44,5.5,5.5,0,0,0-.122.661c-.031.5-.066.988-.108,1.485a.543.543,0,0,1-.431.54l-.026,0H87.89c-.354,0-.5-.307-.5-.619a3.069,3.069,0,0,0-.122-.747A.459.459,0,0,0,87.051,68a3.351,3.351,0,0,0-1.059-.234c-.481-.053-1.013-.055-1.494-.065H83.229v6.006c.5,0,.992-.013,1.489-.02.584,0,1.183,0,1.767-.023.213-.005.645-.032.792-.2.138-.182.324-.409.574-.409a.449.449,0,0,1,.437.5v.02l0,.019c-.051.414-.118.828-.176,1.232-.043.464-.082.94-.082,1.406v.287l0,.022a.469.469,0,0,1-.467.442.48.48,0,0,1-.48-.531A3.576,3.576,0,0,0,87,75.772a.509.509,0,0,0-.158-.31,1.391,1.391,0,0,0-.678-.211c-.976-.062-1.951-.1-2.93-.11v5.667a1.754,1.754,0,0,0,.38,1.242,3.926,3.926,0,0,0,1.83.283c.349,0,.7-.018,1.046-.042a3.713,3.713,0,0,0,.939-.175,1.629,1.629,0,0,0,.787-1.371c.041-.295.186-.6.53-.6h.024l.023,0c.34.048.437.367.415.654a8.143,8.143,0,0,1-.1,1,10.538,10.538,0,0,1-.195,1.249.934.934,0,0,1-.509.73,3.271,3.271,0,0,1-.994.108c-1.232-.018-2.467-.037-3.7-.066-.55-.014-1.147-.015-1.7-.066q-1.062.032-2.133.065c-.313,0-.677-.113-.677-.491a.473.473,0,0,1,.436-.455l.029-.005h.028a2.215,2.215,0,0,0,.57-.076.332.332,0,0,0,.24-.238,2.525,2.525,0,0,0,.149-.729c.121-1.6.115-3.262.115-4.865V72.995c0-1.155,0-2.311-.011-3.467a13.808,13.808,0,0,0-.034-1.381,1.646,1.646,0,0,0-.147-.7.75.75,0,0,0-.526-.253,3.538,3.538,0,0,0-.675-.06.461.461,0,0,1-.5-.462c0-.382.348-.512.676-.512.817.01,1.674.005,2.474.066,1.661,0,3.31-.009,4.962-.023a5.927,5.927,0,0,0,.846-.092Zm14.9,1.455a3.6,3.6,0,0,1,.794,1.117,4.4,4.4,0,0,1,.377,1.747,5.59,5.59,0,0,1-1.593,4.127,5.681,5.681,0,0,1-4.079,1.574c-.161,0-.318-.008-.465-.022a.507.507,0,0,1-.546-.438l0-.022v-.024a.479.479,0,0,1,.4-.508,3.324,3.324,0,0,1,.506-.025,3.44,3.44,0,0,0,2.465-.967,3.183,3.183,0,0,0,.987-2.365v-.7a4.836,4.836,0,0,0-.487-1.715,3.4,3.4,0,0,0-.647-.845,3.1,3.1,0,0,0-1.363-.882,5.851,5.851,0,0,0-1.385-.133,2.4,2.4,0,0,0-.787.105.708.708,0,0,0-.013.142v9.222c-.011,1.6-.024,3.289.115,4.883a1.834,1.834,0,0,0,.186.7.5.5,0,0,0,.4.244,6.246,6.246,0,0,0,.929.082h.031l.03.006a.471.471,0,0,1,.432.454c0,.379-.359.493-.677.493-.893-.018-1.789-.029-2.668-.062-.694.023-1.385.043-2.085.062-.313,0-.676-.114-.676-.491a.474.474,0,0,1,.434-.455l.03-.005H93.4a2.229,2.229,0,0,0,.572-.076.335.335,0,0,0,.24-.238,2.453,2.453,0,0,0,.147-.7c.119-1.608.115-3.277.115-4.889V72.995c0-1.155,0-2.311-.01-3.466a12.279,12.279,0,0,0-.032-1.324v-.033a1.767,1.767,0,0,0-.147-.728.755.755,0,0,0-.524-.252,3.568,3.568,0,0,0-.677-.06.462.462,0,0,1-.5-.462c0-.382.349-.512.677-.512.818.01,1.661.011,2.464.066.913-.019,1.82-.043,2.738-.066a10.006,10.006,0,0,1,1.813.137,4.668,4.668,0,0,1,1.255.385,3.579,3.579,0,0,1,.83.484,3.527,3.527,0,0,1,.38.4Zm18.746,3.187q-2.415,2.787-4.756,5.633c-1.96,2.385-3.9,4.807-5.734,7.294l-.1.138-.171-.006c-.429-.018-.868-.032-1.3-.062q-.7.032-1.408.062c-.313,0-.677-.114-.677-.491a.474.474,0,0,1,.436-.455l.028-.005h.029a2.288,2.288,0,0,0,.574-.076.336.336,0,0,0,.238-.239,2.476,2.476,0,0,0,.149-.7c.121-1.6.115-3.278.115-4.888V72.995c0-1.155,0-2.311-.012-3.466,0-.41.015-.968-.032-1.382a1.7,1.7,0,0,0-.146-.7.761.761,0,0,0-.526-.253,3.564,3.564,0,0,0-.676-.06.461.461,0,0,1-.5-.462c0-.38.347-.512.675-.512.813.01,1.668,0,2.464.066.272,0,.563-.026.84-.043.424-.014.851-.023,1.275-.023.327,0,.671.131.671.512v.022l0,.023a.472.472,0,0,1-.49.417,2.778,2.778,0,0,0-.5.062.467.467,0,0,0-.359.207,1.655,1.655,0,0,0-.169.743c-.022.449-.022.908-.022,1.363-.027,1.157-.022,2.325-.022,3.483V76.94q0,1.668.027,3.339,2.4-2.854,4.73-5.77,3.345-4.1,6.646-8.228l.1-.122h1.984c.326,0,.674.131.674.512V66.7l0,.026a.48.48,0,0,1-.5.409,2.712,2.712,0,0,0-.486.062.467.467,0,0,0-.361.209,1.577,1.577,0,0,0-.175.739c-.023.451-.023.911-.023,1.366-.026,1.16-.022,2.327-.022,3.487v3.958c-.011,1.6-.027,3.286.1,4.878a1.94,1.94,0,0,0,.194.7.486.486,0,0,0,.385.245,6.361,6.361,0,0,0,.927.082h.029l.028.005a.478.478,0,0,1,.448.455c0,.38-.362.493-.679.493-.891-.018-1.786-.027-2.665-.062-.711.022-1.42.043-2.136.062-.311,0-.664-.116-.664-.491a.474.474,0,0,1,.436-.455l.029-.005h.029a2.3,2.3,0,0,0,.577-.076.362.362,0,0,0,.243-.24,2.5,2.5,0,0,0,.146-.7c.111-1.607.107-3.272.107-4.881V73.03q0-1.14-.011-2.279Zm12.765,2.528H143.1v-.3c0-1.151,0-2.3-.012-3.452a13.692,13.692,0,0,0-.031-1.377,1.684,1.684,0,0,0-.144-.7.761.761,0,0,0-.528-.257,3.784,3.784,0,0,0-.679-.06.46.46,0,0,1-.5-.462c0-.381.344-.512.675-.512.808.01,1.662,0,2.453.066.278,0,.57-.026.85-.043.425-.014.851-.023,1.276-.023.327,0,.671.132.671.512v.024l0,.024a.474.474,0,0,1-.5.413,2.748,2.748,0,0,0-.49.062.456.456,0,0,0-.355.206,1.717,1.717,0,0,0-.17.748c-.029.446-.029.909-.029,1.36-.028,1.151-.023,2.314-.023,3.466v3.979c-.011,1.6-.025,3.291.116,4.883a1.822,1.822,0,0,0,.182.7.5.5,0,0,0,.395.244,6.176,6.176,0,0,0,.925.082h.029l.03.006a.473.473,0,0,1,.434.454c0,.379-.361.493-.678.493-.891-.018-1.783-.028-2.664-.062-.707.022-1.412.043-2.124.062-.314,0-.675-.114-.675-.491a.474.474,0,0,1,.434-.455l.028-.005h.03a2.26,2.26,0,0,0,.578-.076.356.356,0,0,0,.243-.24,2.424,2.424,0,0,0,.147-.7c.111-1.611.107-3.275.107-4.89V74.778h-8.862v2.174c-.015,1.6-.034,3.295.107,4.884a1.8,1.8,0,0,0,.182.689.514.514,0,0,0,.4.25,6.155,6.155,0,0,0,.931.082h.031l.029.006a.471.471,0,0,1,.432.455c0,.377-.358.492-.677.492-.886-.018-1.777-.028-2.653-.062-.71.022-1.418.043-2.134.062-.313,0-.676-.114-.676-.491a.475.475,0,0,1,.437-.455l.027-.005h.029a2.236,2.236,0,0,0,.572-.076.34.34,0,0,0,.241-.239,2.464,2.464,0,0,0,.146-.7c.118-1.609.117-3.275.117-4.889V72.973c0-1.15,0-2.3-.013-3.451,0-.4.016-.96-.033-1.369a1.632,1.632,0,0,0-.147-.708.756.756,0,0,0-.525-.253,3.549,3.549,0,0,0-.676-.06.461.461,0,0,1-.5-.462c0-.382.347-.512.675-.512.813.01,1.668,0,2.465.066.272,0,.563-.026.841-.043.424-.014.85-.023,1.274-.023.326,0,.672.132.672.512V66.7l0,.026a.472.472,0,0,1-.489.409,2.766,2.766,0,0,0-.5.062.468.468,0,0,0-.362.207,1.635,1.635,0,0,0-.168.742c-.024.451-.024.911-.024,1.366-.026,1.153-.022,2.314-.022,3.468v.3Zm23.046-7.447c.427-.023.673.752.784,1.052q2.507,6.79,5.069,13.553a6.271,6.271,0,0,0,1.02,1.832,1.648,1.648,0,0,0,.637.471,2.2,2.2,0,0,0,.779.116.481.481,0,0,1,.541.461v.018l0,.019c-.043.378-.44.457-.755.457-1.139,0-2.28-.024-3.414-.043-.328,0-.982,0-.982-.473a.46.46,0,0,1,.323-.451.38.38,0,0,0,.006-.043.673.673,0,0,0-.025-.167l-2-5.476h-4.53l-1.325,3.972a4.318,4.318,0,0,0-.29,1.4.163.163,0,0,0,.113.179l.028.012.027.017a.623.623,0,0,0,.368.118l.22,0a.479.479,0,0,1,.539.461v.016l0,.018c-.035.335-.342.456-.648.456-.566-.023-1.13-.044-1.688-.062-.819.026-1.636.044-2.459.062-.32,0-.738-.088-.738-.491V83.3l0-.022a.479.479,0,0,1,.508-.417,4.538,4.538,0,0,0,.587-.039,1.393,1.393,0,0,0,.941-.587,4.469,4.469,0,0,0,.636-1.31L156.5,66.954c.1-.285.361-1.158.79-1.12Zm-2.053,9.872h3.528l-1.835-5.369-1.693,5.369Zm16.274-8.116a.71.71,0,0,0-.013.142v9.222c-.011,1.6-.026,3.291.116,4.884a1.814,1.814,0,0,0,.183.693.505.505,0,0,0,.4.245,6.3,6.3,0,0,0,.931.082h.031l.029.006a.472.472,0,0,1,.433.455c0,.378-.361.492-.678.492-.893-.018-1.788-.029-2.668-.062-.694.023-1.384.043-2.084.062-.314,0-.676-.113-.676-.491a.475.475,0,0,1,.436-.455l.028-.005H168a2.238,2.238,0,0,0,.573-.076.334.334,0,0,0,.239-.238,2.409,2.409,0,0,0,.147-.7c.119-1.608.116-3.277.116-4.889V72.995c0-1.155,0-2.311-.013-3.466a12.57,12.57,0,0,0-.029-1.324l0-.017v-.016a1.775,1.775,0,0,0-.146-.727.759.759,0,0,0-.526-.253,3.554,3.554,0,0,0-.675-.06.461.461,0,0,1-.5-.462c0-.381.348-.512.677-.512.817.01,1.661.011,2.463.066.913-.019,1.822-.043,2.738-.066a10.045,10.045,0,0,1,1.815.137,4.712,4.712,0,0,1,1.254.385,2.667,2.667,0,0,1,1.208.885,3.553,3.553,0,0,1,.794,1.117,4.419,4.419,0,0,1,.379,1.747,5.608,5.608,0,0,1-1.593,4.128,5.689,5.689,0,0,1-4.08,1.572c-.161,0-.319-.008-.464-.022a.508.508,0,0,1-.548-.438l0-.022v-.024a.479.479,0,0,1,.4-.508,3.3,3.3,0,0,1,.5-.025,3.441,3.441,0,0,0,2.465-.967,3.184,3.184,0,0,0,.988-2.365v-.7a4.879,4.879,0,0,0-.487-1.716,3.4,3.4,0,0,0-.647-.846,3.109,3.109,0,0,0-1.364-.882,5.845,5.845,0,0,0-1.385-.133,2.406,2.406,0,0,0-.787.105Zm14.46,5.692h8.862v-.3c0-1.151,0-2.3-.011-3.452,0-.4.016-.968-.032-1.377a1.688,1.688,0,0,0-.145-.7.764.764,0,0,0-.528-.257,3.769,3.769,0,0,0-.677-.06.459.459,0,0,1-.5-.462c0-.381.344-.512.674-.512.807.01,1.662,0,2.453.066.276,0,.569-.026.849-.043.425-.014.852-.023,1.278-.023.326,0,.671.132.671.512V66.7l0,.026a.478.478,0,0,1-.5.409,2.76,2.76,0,0,0-.49.062.452.452,0,0,0-.352.206,1.722,1.722,0,0,0-.172.748c-.029.446-.029.909-.029,1.36-.028,1.152-.022,2.314-.022,3.466v3.979c-.011,1.6-.026,3.291.115,4.884a1.794,1.794,0,0,0,.183.693.5.5,0,0,0,.394.245,6.214,6.214,0,0,0,.925.082h.031l.029.006a.472.472,0,0,1,.433.455c0,.378-.359.492-.678.492-.891-.018-1.783-.028-2.663-.062-.707.022-1.411.043-2.122.062-.314,0-.677-.114-.677-.491a.473.473,0,0,1,.436-.455l.028-.005h.028a2.26,2.26,0,0,0,.578-.076.355.355,0,0,0,.244-.241,2.34,2.34,0,0,0,.146-.7c.112-1.611.108-3.275.108-4.89V74.778H185.97v2.174c-.015,1.6-.036,3.295.108,4.884a1.76,1.76,0,0,0,.18.688.508.508,0,0,0,.4.251,6.158,6.158,0,0,0,.932.082h.031l.029.006a.472.472,0,0,1,.432.454c0,.378-.359.493-.676.493-.889-.018-1.779-.027-2.653-.062-.712.022-1.42.043-2.135.062-.314,0-.676-.113-.676-.491a.474.474,0,0,1,.434-.455l.028-.005h.03a2.238,2.238,0,0,0,.573-.076.335.335,0,0,0,.24-.238,2.473,2.473,0,0,0,.146-.7c.121-1.608.116-3.277.116-4.889V72.973c0-1.15,0-2.3-.011-3.451-.005-.4.016-.968-.033-1.376a1.663,1.663,0,0,0-.147-.7.757.757,0,0,0-.526-.253,3.526,3.526,0,0,0-.674-.06.462.462,0,0,1-.5-.462c0-.382.348-.512.677-.512.81.01,1.666.005,2.464.066.271,0,.563-.026.838-.043.424-.014.851-.023,1.275-.023.327,0,.672.132.672.512v.024l0,.024a.473.473,0,0,1-.489.413,2.8,2.8,0,0,0-.5.062.464.464,0,0,0-.359.207,1.626,1.626,0,0,0-.169.742c-.022.451-.022.911-.022,1.366-.029,1.153-.023,2.315-.023,3.468v.3Zm23.045-7.448c.427-.024.674.754.784,1.053q2.51,6.79,5.07,13.553a6.232,6.232,0,0,0,1.018,1.831,1.667,1.667,0,0,0,.64.474,2.22,2.22,0,0,0,.777.115.481.481,0,0,1,.542.461v.016l0,.017c-.04.382-.44.462-.756.462-1.137,0-2.277-.024-3.412-.043-.327,0-.982,0-.982-.474a.457.457,0,0,1,.322-.45c0-.018.005-.036.008-.043a.745.745,0,0,0-.028-.174l-2-5.469h-4.529l-1.326,3.972a4.288,4.288,0,0,0-.288,1.4.16.16,0,0,0,.112.178l.03.013.026.017a.626.626,0,0,0,.369.118l.219,0a.48.48,0,0,1,.54.461v.019l0,.019c-.041.331-.343.452-.648.452-.567-.023-1.131-.044-1.689-.062-.819.026-1.637.044-2.459.062-.319,0-.736-.088-.736-.491V83.3l0-.022a.476.476,0,0,1,.507-.417,4.723,4.723,0,0,0,.586-.039,1.4,1.4,0,0,0,.943-.587,4.534,4.534,0,0,0,.635-1.31l4.936-13.971c.1-.285.358-1.156.789-1.122Zm-2.053,9.873h3.528l-1.834-5.371-1.694,5.371Zm66.345-4.952q-2.415,2.785-4.756,5.632c-1.958,2.385-3.9,4.806-5.732,7.294l-.1.138-.171-.006c-.432-.018-.869-.032-1.3-.062q-.7.032-1.407.062c-.314,0-.676-.114-.676-.492a.476.476,0,0,1,.435-.454l.029-.005h.028a2.252,2.252,0,0,0,.574-.076.336.336,0,0,0,.238-.238,2.444,2.444,0,0,0,.147-.7c.121-1.606.115-3.28.115-4.889V72.995c0-1.155,0-2.311-.009-3.467-.005-.4.014-.971-.035-1.381a1.634,1.634,0,0,0-.146-.7.755.755,0,0,0-.525-.252,3.575,3.575,0,0,0-.677-.06.462.462,0,0,1-.5-.462c0-.38.347-.512.675-.512.813.01,1.668,0,2.466.066.272,0,.56-.026.837-.043.424-.014.851-.023,1.274-.023.328,0,.672.131.672.512v.039a.471.471,0,0,1-.49.422,2.777,2.777,0,0,0-.5.062.465.465,0,0,0-.358.207,1.621,1.621,0,0,0-.17.742c-.02.45-.02.909-.02,1.364-.028,1.157-.023,2.325-.023,3.483V76.94q0,1.668.028,3.34,2.4-2.856,4.728-5.771,3.347-4.1,6.646-8.228l.1-.122h1.984c.325,0,.674.13.674.512V66.7l0,.026a.478.478,0,0,1-.5.41,2.69,2.69,0,0,0-.485.062.469.469,0,0,0-.363.21,1.576,1.576,0,0,0-.174.739c-.023.45-.023.911-.023,1.365-.025,1.159-.02,2.327-.02,3.487v3.958c-.012,1.6-.03,3.288.1,4.879a1.9,1.9,0,0,0,.195.7.48.48,0,0,0,.385.248,6.375,6.375,0,0,0,.928.082h.028l.028.005a.476.476,0,0,1,.446.456c0,.378-.359.492-.677.492-.892-.018-1.786-.027-2.665-.062-.714.022-1.422.043-2.138.062-.31,0-.661-.117-.661-.492a.473.473,0,0,1,.435-.454l.028-.005h.03a2.3,2.3,0,0,0,.575-.076.356.356,0,0,0,.242-.241,2.339,2.339,0,0,0,.146-.7c.114-1.606.108-3.273.108-4.881V73.03q0-1.14-.011-2.277Zm12.766,2.527h8.863v-.3c0-1.151,0-2.3-.012-3.452,0-.4.016-.968-.033-1.378a1.661,1.661,0,0,0-.144-.7.765.765,0,0,0-.527-.257,3.792,3.792,0,0,0-.679-.06.461.461,0,0,1-.5-.462c0-.382.345-.512.676-.512.807.01,1.661,0,2.454.066.273,0,.568-.026.849-.043.424-.014.85-.023,1.277-.023.326,0,.668.132.668.512v.024l0,.024a.474.474,0,0,1-.5.413,2.712,2.712,0,0,0-.488.062.455.455,0,0,0-.354.2,1.677,1.677,0,0,0-.169.747c-.03.449-.031.911-.031,1.363-.029,1.151-.023,2.314-.023,3.466v3.979c-.011,1.6-.025,3.29.115,4.883a1.8,1.8,0,0,0,.173.674l.009.015.005.014a.487.487,0,0,0,.391.237,6.1,6.1,0,0,0,.926.082h.031l.027.006a.472.472,0,0,1,.434.455c0,.378-.362.492-.678.492-.891-.018-1.784-.028-2.662-.062-.708.022-1.413.043-2.125.062-.313,0-.675-.114-.675-.492a.473.473,0,0,1,.433-.454l.028-.005h.03a2.281,2.281,0,0,0,.579-.076.355.355,0,0,0,.243-.241,2.374,2.374,0,0,0,.147-.7c.111-1.611.108-3.275.108-4.89V74.778h-8.863v2.174c-.013,1.6-.037,3.295.105,4.884a1.76,1.76,0,0,0,.183.688.508.508,0,0,0,.4.251,6.12,6.12,0,0,0,.932.082h.03l.029.006a.471.471,0,0,1,.431.454c0,.379-.357.493-.676.493-.888-.018-1.778-.027-2.653-.062-.712.022-1.419.043-2.133.062-.315,0-.676-.113-.676-.492a.474.474,0,0,1,.434-.454l.027-.005h.029a2.246,2.246,0,0,0,.574-.076.337.337,0,0,0,.24-.238,2.481,2.481,0,0,0,.146-.7c.119-1.608.117-3.277.117-4.889V72.973c0-1.15,0-2.3-.014-3.451,0-.408.016-.963-.031-1.377a1.684,1.684,0,0,0-.147-.7.759.759,0,0,0-.525-.252,3.675,3.675,0,0,0-.677-.06.461.461,0,0,1-.5-.462c0-.382.349-.512.676-.512.812.01,1.667.005,2.464.066.271,0,.564-.026.84-.043.425-.014.851-.023,1.275-.023.327,0,.672.132.672.512v.024l0,.024a.469.469,0,0,1-.488.413,2.766,2.766,0,0,0-.5.062.461.461,0,0,0-.361.207,1.6,1.6,0,0,0-.168.742c-.023.451-.023.911-.023,1.366-.029,1.153-.023,2.314-.023,3.468v.3Zm31.686-2.528q-2.414,2.787-4.755,5.633c-1.96,2.385-3.9,4.807-5.732,7.294l-.1.138L307,83.811c-.432-.018-.868-.032-1.3-.062q-.7.032-1.406.062c-.314,0-.678-.113-.678-.491a.474.474,0,0,1,.435-.455l.029-.005h.028a2.225,2.225,0,0,0,.573-.076.336.336,0,0,0,.24-.24,2.449,2.449,0,0,0,.147-.7c.118-1.608.116-3.278.116-4.889V72.995q0-1.732-.012-3.466c0-.4.015-.972-.034-1.382a1.629,1.629,0,0,0-.146-.7.75.75,0,0,0-.526-.253,3.554,3.554,0,0,0-.675-.06.461.461,0,0,1-.5-.462c0-.38.347-.512.675-.512.813.01,1.666,0,2.464.066.271,0,.565-.026.842-.043.422-.014.848-.023,1.272-.023.326,0,.673.13.673.512v.024l0,.024a.469.469,0,0,1-.488.413,2.79,2.79,0,0,0-.5.062.458.458,0,0,0-.357.208,1.619,1.619,0,0,0-.17.741c-.022.449-.022.909-.022,1.364-.028,1.157-.023,2.325-.023,3.483V76.94q0,1.668.028,3.34,2.4-2.856,4.73-5.771,3.342-4.1,6.645-8.228l.1-.122h1.986c.325,0,.672.131.672.512v.023l0,.023a.477.477,0,0,1-.5.415,2.714,2.714,0,0,0-.487.062.462.462,0,0,0-.359.209,1.541,1.541,0,0,0-.177.74c-.025.449-.023.912-.023,1.365-.027,1.159-.023,2.328-.023,3.487v3.958c-.01,1.6-.026,3.286.1,4.879a1.828,1.828,0,0,0,.185.677l.009.014.006.015a.47.47,0,0,0,.378.238,6.416,6.416,0,0,0,.929.082h.03l.026.005a.476.476,0,0,1,.447.456c0,.378-.359.492-.678.492-.891-.018-1.785-.027-2.664-.062-.711.022-1.42.043-2.135.062-.31,0-.664-.116-.664-.492a.474.474,0,0,1,.435-.454l.027-.005h.029a2.28,2.28,0,0,0,.577-.076.355.355,0,0,0,.244-.24,2.5,2.5,0,0,0,.147-.7c.11-1.607.107-3.272.107-4.881V73.03q0-1.14-.012-2.279Z" transform="translate(-24.674 -16.218)" fill="#00295f" fill-rule="evenodd"/>
    <path id="Path_16" data-name="Path 16" d="M388,68.628h-4.54l-6.848,21.253c-.745,2.309-3.9,2.354-4.414.236l-6.789-42.438-2.385,14.427a2.909,2.909,0,0,1-1.859,2.119H25.349l.032.044.028-4.581H358.83l4.359-25.106c.271-1.471.446-2.654,2.221-2.973a1.988,1.988,0,0,1,1.293.293,2.461,2.461,0,0,1,1.181,1.952c2.428,15.161,4.889,30.69,7.317,45.852l4.7-14.594a2.389,2.389,0,0,1,2.014-1.07l6.127.042.025,4.562L388,68.628Z" transform="translate(-24.349 -18.83)" fill="#00295f" fill-rule="evenodd"/>
  </g>
  <path id="Path_17" data-name="Path 17" d="M88.363,31.072a2.785,2.785,0,0,1-.742-1.528c.017-.843-.669-1.171-1.075-1.506a2.412,2.412,0,0,1-.86-1.266,5.466,5.466,0,0,1,.431-2.15c.071-.25.215-.729-.589-.223-1.951,1.228-5.808,3.479-7.01,7.509a15.023,15.023,0,0,0-2.771,3.129c-5.742.887-7.574,3.836-8.363,7.263a19.754,19.754,0,0,0-.406,6.212,9.685,9.685,0,0,1-.263,3.416c-.144.621-.144.573-.382.645a26.061,26.061,0,0,0-2.677.859,7.116,7.116,0,0,1-2.509.5,14.936,14.936,0,0,0-3.894.668,21.516,21.516,0,0,1-5.447,1.243c-.739.043-2.294-.5-3.01-.335s-.885.645-.765.931.358,1.267,4.348,1.41,8.937-1.05,10.847-1.29,5.447-.6,7.647-.669,6.378.264,9.055.168,3.32-1.027,3.56-1.6c.214.956,1.481.741,1.959.668s.167.168,1.146-.262c.885-1.314.071-1.84-.836-2.653a1.827,1.827,0,0,1-.812-1.72,6.08,6.08,0,0,0-.335-1.839,15.955,15.955,0,0,1-.645-3.631c-.048-1.194,1.338-3.511,1.815-5.35s.119-1.792,0-2.078a3.625,3.625,0,0,1,.144-3.344,2.644,2.644,0,0,0,3.083-1.721C89.294,31.837,88.809,31.651,88.363,31.072ZM81.247,52.981a3.415,3.415,0,0,1-1.477-.306A5.415,5.415,0,0,1,80.44,51.1a2.5,2.5,0,0,0,.269-1.5,17.725,17.725,0,0,1,2.263,3.838A5.9,5.9,0,0,0,81.247,52.981Z" transform="translate(-21.131 -21.886)" fill="#e50019" fill-rule="evenodd"/>
</svg>
