<?xml version="1.0" encoding="utf-8"?>
<!-- Generator: Adobe Illustrator 25.0.0, SVG Export Plug-In . SVG Version: 6.00 Build 0)  -->
<svg version="1.1" id="logo" xmlns="http://www.w3.org/2000/svg" xmlns:xlink="http://www.w3.org/1999/xlink" x="0px" y="0px"
	 viewBox="0 0 327.1 72.8" style="enable-background:new 0 0 327.1 72.8;" xml:space="preserve">
<style type="text/css">
	.st0{fill-rule:evenodd;clip-rule:evenodd;fill:#E50019;}
	.st1{fill-rule:evenodd;clip-rule:evenodd;fill:#00295F;}
	.st2{fill:#00295F;}
</style>
<g id="Group_9_1_">
	<path id="Path_13_1_" class="st0" d="M326.6,58.4c0,0-7.8,5-13.3,2.8s-6.1-3.3-8.3-12.8s-13.9-15-15.3-18.3s-1.9-6.9-1.1-8.9
		l3.1,0.3c0,0,1.4-7.8-0.6-10.3s-2.8-7.8-6.9-7.8s-8.3,0.8-10,0s-5-4.4-6.1-3.3s-1.9,5.5,0,6.9c1.1,0.8,2.1,1.8,2.8,3l-3.6-0.7
		c0,1.1,1.5,2.5,1.5,2.5s5,1.1,5.1,2.1c0.3,2.3,0.6,3.9-0.8,4.7s-3.6,2.2-4.2,8.3c0,0,0,1.9-2.5,0.6s-7.2-5.8-8.6-6.9
		s-1.9,0.3-3.6-0.8s-4.7-6.7-5.8-5.5s-1.7,5.5,0,6.9s2.8,1.1,4.7,2.5s10,7.5,13,11.4c0,0-0.8,1.1,2.5,0.8l3.3-0.3
		c0,0,1.7,11.4-0.8,16.6c-1.3,2.8-2.8,5.5-4.4,8c0,0-5-0.8-5.5,0.8s-1.4,4.2,0.6,4.2s5.8,0.8,6.4,0s10.3-12.8,10.5-14.1
		s1.9,3.3,5.3,7.5s2.8,2.2,1.7,3.6s-3.6,0.8-2.8,2.2c0.5,0.8,0.9,1.6,1.1,2.5h19.4c1.3-1.4,1.8-3.4,1.4-5.3c1.1,0.4,2.1,0.8,3,1.4
		C310.6,64.6,321.6,67.1,326.6,58.4L326.6,58.4z"/>
	<path id="Path_16_1_" class="st1" d="M261.7,49.8h-4.5l-6.8,21.3c-0.7,2.3-3.9,2.4-4.4,0.2l-6.8-42.4l-2.4,14.4
		c-0.2,1-0.9,1.8-1.9,2.1H0l0,0l0-4.6h232.4l4.4-25.1c0.3-1.5,0.4-2.7,2.2-3c0.5-0.1,0.9,0.1,1.3,0.3c0.7,0.4,1.1,1.1,1.2,2
		c2.4,15.2,4.9,30.7,7.3,45.9l4.7-14.6c0.4-0.7,1.2-1.1,2-1.1l6.1,0L261.7,49.8L261.7,49.8z"/>
</g>
<g>
	<path class="st2" d="M91.2,20.8l0.8-1.7h0.7l0.3,6.9h-0.8c-0.5-1.9-1.2-3.4-1.9-4.3c-1-1.2-2.1-1.7-3.4-1.7c-1.4,0-2.6,0.6-3.5,1.9
		c-0.9,1.3-1.4,3.5-1.4,6.5c0,2.6,0.5,4.5,1.6,5.9c0.9,1.1,2.1,1.7,3.7,1.7c1.4,0,2.6-0.4,3.5-1.3c0.9-0.9,1.6-2.2,1.8-4h0.8
		c-0.2,2-0.9,3.6-2.1,4.7C90.2,36.4,88.8,37,87,37c-1.4,0-2.7-0.4-3.9-1.1c-1.2-0.7-2.1-1.8-2.9-3.1c-0.7-1.3-1.1-2.8-1.1-4.4
		c0-1.7,0.4-3.3,1.1-4.8c0.7-1.5,1.7-2.6,2.8-3.4c1.2-0.8,2.4-1.1,3.7-1.1c0.7,0,1.5,0.1,2.2,0.4C89.7,19.7,90.4,20.1,91.2,20.8z"/>
	<path class="st2" d="M96.2,19.4h13.6l0.3,5.8h-0.8c-0.3-1.8-0.8-3.1-1.5-3.8s-1.5-1.1-2.6-1.1h-3.4c-0.3,0-0.5,0.1-0.6,0.2
		c-0.1,0.1-0.2,0.4-0.2,0.7v6.1h1.5c0.8,0,1.4-0.3,1.9-0.8s0.8-1.4,0.8-2.6h0.8v7.9h-0.8c0-1.3-0.3-2.3-0.8-2.8
		c-0.5-0.6-1.2-0.9-2-0.9h-1.3v6.8c0,0.2,0.1,0.4,0.2,0.6c0.2,0.1,0.4,0.2,0.8,0.2h2.6c2.9,0,4.5-1.8,5-5.5h0.8l-0.3,6.4H96.2v-0.9
		h1.2c0.5,0,0.8-0.1,1-0.2c0.2-0.2,0.3-0.4,0.3-0.7V21.2c0-0.3-0.1-0.5-0.2-0.7c-0.2-0.1-0.4-0.2-0.8-0.2h-1.4V19.4z"/>
	<path class="st2" d="M112.7,19.4h4.1l10.3,13.5v-9.7c0-1-0.2-1.7-0.7-2.2c-0.4-0.4-1-0.7-1.8-0.7v-0.9h6v0.9
		c-0.6,0-1.1,0.1-1.4,0.3c-0.3,0.2-0.6,0.5-0.8,0.9c-0.2,0.4-0.3,0.9-0.3,1.5v13.6h-1.1l-10.7-14v10.3c0,0.9,0.2,1.6,0.7,2.1
		c0.5,0.5,1.2,0.7,2.2,0.7v0.9h-6.5v-0.9c0.8,0,1.5-0.3,1.9-0.8c0.5-0.5,0.7-1.1,0.7-1.9V21.4l-0.2-0.2c-0.4-0.4-0.7-0.7-0.8-0.7
		c-0.2-0.1-0.5-0.2-0.9-0.2h-0.8V19.4z"/>
	<path class="st2" d="M132.1,19.4h13.9l0.3,6.5h-0.8c-0.5-3.8-1.9-5.7-4.1-5.7c-0.4,0-0.8,0.1-0.9,0.2c-0.2,0.2-0.2,0.4-0.2,0.8
		v13.7c0,0.3,0.1,0.5,0.2,0.6s0.4,0.2,0.8,0.2h1.7v0.9h-8v-0.9h2c0.3,0,0.5-0.1,0.6-0.2c0.1-0.1,0.2-0.3,0.2-0.5V21.1
		c0-0.3-0.1-0.5-0.3-0.7c-0.2-0.2-0.5-0.2-0.9-0.2c-1.1,0-2.1,0.5-2.8,1.6c-0.6,0.9-1.1,2.2-1.3,4.1h-0.8L132.1,19.4z"/>
	<path class="st2" d="M147.5,19.4h8.8c1.7,0,3,0.4,4,1.2c0.9,0.8,1.4,1.8,1.4,3.1c0,0.8-0.2,1.4-0.6,2c-0.4,0.6-0.9,1.1-1.6,1.4
		c-0.7,0.4-1.8,0.6-3.3,0.8c1.1,0.3,1.9,0.6,2.3,0.9s0.7,0.7,1,1.1s0.5,1.4,0.9,2.8c0.2,1,0.5,1.7,0.7,2.1c0.2,0.3,0.4,0.4,0.6,0.4
		c0.2,0,0.5-0.2,0.7-0.5c0.2-0.4,0.3-1,0.4-1.9h0.8c-0.1,2.6-1.1,3.9-2.9,3.9c-0.6,0-1.1-0.1-1.5-0.4s-0.7-0.7-0.9-1.3
		c-0.2-0.4-0.3-1.5-0.5-3.3c-0.1-1-0.3-1.8-0.5-2.2s-0.6-0.8-1.2-1c-0.5-0.3-1.2-0.4-1.9-0.4h-1.4v6.7c0,0.3,0.1,0.5,0.2,0.6
		c0.2,0.1,0.5,0.2,0.9,0.2h1.6v0.9h-8v-0.9h1.7c0.4,0,0.6-0.1,0.8-0.2c0.2-0.1,0.3-0.3,0.3-0.6V21.2c0-0.3-0.1-0.5-0.3-0.7
		c-0.2-0.1-0.4-0.2-0.8-0.2h-1.7V19.4z M152.7,27.3h2c1.4,0,2.4-0.3,3.2-0.8c0.8-0.5,1.2-1.4,1.2-2.7c0-0.9-0.1-1.6-0.4-2.1
		c-0.3-0.5-0.7-0.9-1.1-1.1c-0.5-0.2-1.4-0.3-2.8-0.3c-0.9,0-1.5,0.1-1.7,0.2c-0.2,0.1-0.3,0.3-0.3,0.7V27.3z"/>
	<path class="st2" d="M172.3,19.1h0.8l6.1,15.7c0.2,0.6,0.8,0.9,1.5,0.9h0.5v0.9h-6.8v-0.9h0.5c0.7,0,1.2-0.1,1.5-0.2
		c0.2-0.1,0.3-0.3,0.3-0.5c0-0.1,0-0.3-0.1-0.4l-1.4-3.6h-6.8l-0.8,2.1c-0.2,0.6-0.3,1-0.3,1.3c0,0.4,0.2,0.7,0.5,1
		c0.4,0.3,0.9,0.4,1.5,0.4h0.6v0.9h-6.2v-0.9c0.7,0,1.2-0.1,1.6-0.4s0.7-0.8,1.1-1.7L172.3,19.1z M172,22.4l-3.1,7.6h6L172,22.4z"/>
	<path class="st2" d="M181.9,19.4h7.9v0.9H188c-0.3,0-0.5,0.1-0.7,0.2c-0.1,0.2-0.2,0.4-0.2,0.7v13.5c0,0.3,0.1,0.6,0.3,0.7
		c0.2,0.1,0.5,0.2,1.1,0.2h2.4c1.3,0,2.3-0.4,3.1-1.3c0.8-0.9,1.4-2.3,1.8-4.4h0.8l-0.4,6.6h-14.3v-0.9h1.4c0.5,0,0.8-0.1,1-0.3
		c0.2-0.2,0.3-0.5,0.3-0.9V21.2c0-0.3-0.1-0.5-0.2-0.6c-0.2-0.1-0.4-0.2-0.7-0.2h-1.7V19.4z"/>
</g>
<g>
	<path class="st2" d="M64.5,50.1h7.2V51h-1.3c-0.5,0-0.9,0.1-1.1,0.2c-0.2,0.1-0.3,0.3-0.3,0.5c0,0.2,0.1,0.4,0.2,0.7l0.1,0.2
		L74,64.1l4-11c0.1-0.2,0.1-0.5,0.1-0.8c0-0.4-0.1-0.8-0.4-1s-0.6-0.4-1-0.4h-1.2v-0.9h6.3V51h-0.5c-0.4,0-0.8,0.2-1.2,0.5
		s-0.7,1-1,1.8l-5.3,14.3H73l-6.1-15.3c-0.2-0.5-0.5-0.9-0.7-1.1c-0.3-0.2-0.6-0.3-1.1-0.3h-0.6V50.1z"/>
	<path class="st2" d="M83.3,50.1h13.6l0.3,5.8h-0.8c-0.3-1.8-0.8-3.1-1.5-3.8c-0.7-0.7-1.5-1.1-2.6-1.1H89c-0.3,0-0.5,0.1-0.6,0.2
		s-0.2,0.4-0.2,0.7V58h1.5c0.8,0,1.4-0.3,1.9-0.8s0.8-1.4,0.8-2.6h0.8v7.9h-0.8c0-1.3-0.3-2.3-0.8-2.8s-1.2-0.9-2-0.9h-1.3v6.8
		c0,0.2,0.1,0.4,0.2,0.6c0.2,0.1,0.4,0.2,0.8,0.2h2.6c2.9,0,4.5-1.8,5-5.5h0.8l-0.3,6.4H83.3v-0.9h1.2c0.5,0,0.8-0.1,1-0.2
		c0.2-0.2,0.3-0.4,0.3-0.7V51.9c0-0.3-0.1-0.5-0.2-0.7S85.1,51,84.7,51h-1.4V50.1z"/>
	<path class="st2" d="M99.9,50.1h13.9l0.3,6.5h-0.8c-0.5-3.8-1.9-5.7-4.1-5.7c-0.4,0-0.8,0.1-0.9,0.2c-0.2,0.2-0.2,0.4-0.2,0.8v13.7
		c0,0.3,0.1,0.5,0.2,0.6s0.4,0.2,0.8,0.2h1.7v0.9h-8v-0.9h2c0.3,0,0.5-0.1,0.6-0.2c0.1-0.1,0.2-0.3,0.2-0.5V51.8
		c0-0.3-0.1-0.5-0.3-0.7c-0.2-0.2-0.5-0.2-0.9-0.2c-1.1,0-2.1,0.5-2.8,1.6c-0.6,0.9-1.1,2.2-1.3,4.1h-0.8L99.9,50.1z"/>
	<path class="st2" d="M137.4,51.5l0.8-1.7h0.7l0.3,6.9h-0.8c-0.5-1.9-1.2-3.4-1.9-4.3c-1-1.1-2.1-1.7-3.4-1.7
		c-1.4,0-2.6,0.6-3.5,1.9c-0.9,1.3-1.4,3.5-1.4,6.5c0,2.6,0.5,4.5,1.6,5.9c0.9,1.1,2.1,1.7,3.7,1.7c1.4,0,2.6-0.4,3.5-1.3
		c0.9-0.9,1.6-2.2,1.8-4h0.8c-0.2,2-0.9,3.6-2.1,4.7s-2.6,1.6-4.4,1.6c-1.4,0-2.7-0.4-3.9-1.1c-1.2-0.7-2.1-1.8-2.9-3.1
		c-0.7-1.3-1.1-2.8-1.1-4.4c0-1.7,0.4-3.3,1.1-4.8s1.7-2.6,2.8-3.4s2.4-1.1,3.7-1.1c0.7,0,1.5,0.1,2.2,0.4
		C135.8,50.4,136.5,50.9,137.4,51.5z"/>
	<path class="st2" d="M141.5,50.1h7.9V51h-1.9c-0.3,0-0.5,0.1-0.7,0.2c-0.1,0.2-0.2,0.4-0.2,0.7v13.5c0,0.3,0.1,0.6,0.3,0.7
		c0.2,0.1,0.5,0.2,1.1,0.2h2.4c1.3,0,2.3-0.4,3.1-1.3c0.8-0.9,1.4-2.3,1.8-4.4h0.8l-0.4,6.6h-14.3v-0.9h1.4c0.5,0,0.8-0.1,1-0.3
		c0.2-0.2,0.3-0.5,0.3-0.9V51.9c0-0.3-0.1-0.5-0.2-0.6s-0.4-0.2-0.7-0.2h-1.7V50.1z"/>
	<path class="st2" d="M157.5,50.1h7.9V51H164c-0.6,0-1,0.1-1.1,0.2c-0.2,0.2-0.2,0.5-0.2,1v13c0,0.5,0.1,0.8,0.2,1
		c0.2,0.2,0.5,0.3,1,0.3h1.5v0.9h-7.9v-0.9h1.5c0.5,0,0.9-0.1,1-0.2c0.2-0.2,0.2-0.5,0.2-1v-13c0-0.5-0.1-0.8-0.2-0.9
		c-0.2-0.2-0.6-0.3-1.2-0.3h-1.3V50.1z"/>
	<path class="st2" d="M167.2,50.1h4.1l10.3,13.5v-9.7c0-1-0.2-1.7-0.7-2.2c-0.4-0.4-1-0.7-1.8-0.7v-0.9h6V51c-0.6,0-1.1,0.1-1.4,0.3
		s-0.6,0.5-0.8,0.9c-0.2,0.4-0.3,0.9-0.3,1.5v13.6h-1.1l-10.7-14v10.3c0,0.9,0.2,1.6,0.7,2.1c0.5,0.5,1.2,0.7,2.2,0.7v0.9h-6.5v-0.9
		c0.8,0,1.5-0.3,1.9-0.8c0.5-0.5,0.7-1.1,0.7-1.9V52.1l-0.2-0.2c-0.4-0.4-0.7-0.7-0.8-0.7c-0.2-0.1-0.5-0.2-0.9-0.2h-0.8V50.1z"/>
	<path class="st2" d="M186.4,50.1h7.9V51H193c-0.6,0-1,0.1-1.1,0.2c-0.2,0.2-0.2,0.5-0.2,1v13c0,0.5,0.1,0.8,0.2,1
		c0.2,0.2,0.5,0.3,1,0.3h1.5v0.9h-7.9v-0.9h1.5c0.5,0,0.9-0.1,1-0.2c0.2-0.2,0.2-0.5,0.2-1v-13c0-0.5-0.1-0.8-0.2-0.9
		c-0.2-0.2-0.6-0.3-1.2-0.3h-1.3V50.1z"/>
	<path class="st2" d="M208.9,51.5l0.8-1.7h0.7l0.3,6.9H210c-0.5-1.9-1.2-3.4-1.9-4.3c-1-1.1-2.1-1.7-3.4-1.7c-1.4,0-2.6,0.6-3.5,1.9
		c-0.9,1.3-1.4,3.5-1.4,6.5c0,2.6,0.5,4.5,1.6,5.9c0.9,1.1,2.1,1.7,3.7,1.7c1.4,0,2.6-0.4,3.5-1.3s1.6-2.2,1.8-4h0.8
		c-0.2,2-0.9,3.6-2.1,4.7s-2.6,1.6-4.4,1.6c-1.4,0-2.7-0.4-3.9-1.1c-1.2-0.7-2.1-1.8-2.9-3.1c-0.7-1.3-1.1-2.8-1.1-4.4
		c0-1.7,0.4-3.3,1.1-4.8c0.7-1.5,1.7-2.6,2.8-3.4s2.4-1.1,3.7-1.1c0.7,0,1.5,0.1,2.2,0.4C207.4,50.4,208.1,50.9,208.9,51.5z"/>
</g>
<path id="Path_17" class="st0" d="M40.6,9.2c-0.4-0.4-0.7-1-0.7-1.5c0-0.8-0.7-1.2-1.1-1.5c-0.4-0.3-0.7-0.8-0.9-1.3
	c0-0.7,0.1-1.5,0.4-2.1c0.1-0.2,0.2-0.7-0.6-0.2c-2,1.2-5.8,3.5-7,7.5c-1.1,0.9-2,2-2.8,3.1c-5.7,0.9-7.6,3.8-8.4,7.3
	c-0.5,2-0.6,4.1-0.4,6.2c0.1,1.1,0,2.3-0.3,3.4c-0.1,0.6-0.1,0.6-0.4,0.6c-0.9,0.2-1.8,0.5-2.7,0.9c-0.8,0.3-1.6,0.5-2.5,0.5
	c-1.3,0-2.6,0.3-3.9,0.7C7.7,33.4,5.9,33.8,4,34c-0.7,0-2.3-0.5-3-0.3s-0.9,0.6-0.8,0.9c0.1,0.3,0.4,1.3,4.3,1.4
	c4,0.1,8.9-1.1,10.8-1.3c1.9-0.2,5.4-0.6,7.6-0.7s6.4,0.3,9.1,0.2s3.3-1,3.6-1.6c0.2,1,1.5,0.7,2,0.7c0.5-0.1,0.2,0.2,1.1-0.3
	c0.9-1.3,0.1-1.8-0.8-2.7c-0.6-0.4-0.9-1-0.8-1.7c0-0.6-0.1-1.2-0.3-1.8c-0.4-1.2-0.6-2.4-0.6-3.6c0-1.2,1.3-3.5,1.8-5.3
	s0.1-1.8,0-2.1c-0.5-1.1-0.4-2.3,0.1-3.3c1.3,0.3,2.6-0.4,3.1-1.7C41.5,10,41,9.8,40.6,9.2z M33.5,31.1c-0.5,0-1-0.1-1.5-0.3
	c0.1-0.6,0.4-1.1,0.7-1.6c0.2-0.5,0.3-1,0.3-1.5c0.9,1.2,1.7,2.5,2.3,3.8C34.7,31.3,34.1,31.2,33.5,31.1z"/>
</svg>
